<?xml version="1.0" standalone="no"?>
<!DOCTYPE svg PUBLIC "-//W3C//DTD SVG 1.1//EN" "http://www.w3.org/Graphics/SVG/1.1/DTD/svg11.dtd" >
<!--
2013-9-30: Created.
-->
<svg>
<metadata>
Created by iconfont
</metadata>
<defs>

<font id="iconfont" horiz-adv-x="1024" >
  <font-face
    font-family="iconfont"
    font-weight="500"
    font-stretch="normal"
    units-per-em="1024"
    ascent="896"
    descent="-128"
  />
    <missing-glyph />
    
    <glyph glyph-name="f7_equipList" unicode="&#58880;" d="M354.757235-3.7000189999999975H160.540881v-58.266032h699.17498401v58.266032H354.757235zM898.553405 831.390493H121.69617798c-32.185027 0-58.26193801-26.057469-58.26193799-58.26296099v-543.77672801c0-32.1707 26.076912-58.267055 58.26193799-58.267055h776.85722702c32.171724 0 58.272171 26.096355 58.272171 58.267055V773.12753199c0 32.205493-26.10044799 58.26296201-58.272171 58.26296101z m7.684006-587.569116h-0.01023299c0-10.948353-8.868995-19.80302199-19.80404501-19.80302099H133.830543c-10.94732999 0-19.80813801 8.853645-19.80813801 19.80302099V758.73473001c0 10.943236 8.860808 19.804045 19.80813801 19.80404499h752.59259c10.93505001 0 19.813255-8.859785 19.813255-19.80404501v-514.91335299zM680.001807 45.00628601000005V100.12053401000003H350.91778999v-55.114248h329.08401701zM634.09015101 705.393871h-55.113225v-395.08215h55.113225V705.393871zM809.075511 640.416997h-55.11322499v-332.151889h55.11322499V640.416997zM451.941648 579.021695h-55.11322601v-267.687691h55.11322601V579.021695zM279.0029 513.533169h-55.113225v-203.222472h55.113225V513.533169z"  horiz-adv-x="1024" />

    
    <glyph glyph-name="word" unicode="&#60420;" d="M845.68818359-66H178.31357422c-12.43388672 0-22.55009766 10.03535156-22.55009766 22.37080078V811.62919922C155.76347656 823.96464844 165.87880859 834 178.31357422 834h467.75214844l222.17080078-225.75410156v-651.87421875C868.23652344-55.96464844000002 858.12207031-66 845.68818359-66zM178.31357422 817.30078125c-3.22646484 0-5.85087891-2.54443359-5.85087891-5.67158203v-855.25839844c0-3.12802734 2.62441406-5.67158203 5.85087891-5.67158203h667.37460937c3.22558594 0 5.84912109 2.54443359 5.8491211 5.67158203V601.40625L639.07050781 817.30078125H178.31357422zM865.14541016 589.4663085899999H661.84736328c-12.33544922 0-22.37080078 10.03535156-22.37080078 22.37080078V818.57519531h16.69921875v-206.73808594c0-3.12714844 2.54443359-5.67158203 5.67158203-5.67158203h203.29804688V589.4663085899999zM733.70234375 475.54863281h-441.65039063c-4.61162109 0-8.34960938 3.73798828-8.34960937 8.34960938s3.73798828 8.34960938 8.34960938 8.34960937h441.65039062c4.61162109 0 8.34960938-3.73798828 8.34960938-8.34960937S738.31396484 475.54863281 733.70234375 475.54863281zM733.70234375 316.06318359h-441.65039063c-4.61162109 0-8.34960938 3.73798828-8.34960937 8.34960938s3.73798828 8.34960938 8.34960938 8.34960937h441.65039062c4.61162109 0 8.34960938-3.73798828 8.34960938-8.34960937S738.31396484 316.06318359 733.70234375 316.06318359zM733.70234375 153.07265625000002h-441.65039063c-4.61162109 0-8.34960938 3.73798828-8.34960937 8.34960938s3.73798828 8.34960938 8.34960938 8.34960937h441.65039062c4.61162109 0 8.34960938-3.73798828 8.34960938-8.34960937S738.31396484 153.07265625000002 733.70234375 153.07265625000002z"  horiz-adv-x="1024" />

    
    <glyph glyph-name="f7_usersName" unicode="&#58881;" d="M784.63671875 253.23157551999998c-8.37333984 8.42255859-21.92871094 8.42255859-30.29589844 0-8.34345703-8.41640625-8.34345703-22.08691406 0.02460938-30.5015625 64.74375001-65.16386719 100.39482422-151.78710938 100.39482422-243.91845703 0-11.91533203 9.57919922-21.56132813 21.42333984-21.56132813s21.42158203 9.64599609 21.42158203 21.56132813c-0.00087891 103.64853516-40.12207031 201.11044922-112.96933594 274.42001953zM512 840.84895833c-141.75878906 0-257.06953125-116.05253906-257.06953125-258.71923828 0-101.76416016 58.67753906-189.97119141 143.76269531-232.19648438-59.54238281-18.33222656-114.09257813-51.16464844-159.34833984-96.72011718-72.84550781-73.29199219-112.95-170.75390625-112.95-274.40771485 0-11.91533203 9.57919922-21.55517578 21.42333984-21.55517578 11.84238281 0 21.42158203 9.64599609 21.42158203 21.55517578 0 92.13662109 35.65107422 178.75458985 100.40185547 243.92460938 62.3935547 62.81542969 144.65654297 98.40234375 232.53837891 100.8852539 3.25898437-0.12216797 6.53027344-0.20478516 9.81914062-0.20478515 141.75878906 0 257.07041014 116.05253906 257.07041016 258.72011718C769.06953125 724.79641927 653.75791015 840.84895833 512 840.84895833z m3.46376953-474.27539063a21.04980469 21.04980469 0 0 1-3.50507813 0.31289063c-3.25283203 0-6.50126953-0.0421875-9.74091796-0.12128906-113.58984375 5.16357422-204.44238281 99.78662109-204.44238282 215.36455078 0 118.87822266 96.10488281 215.59658203 214.22460938 215.59658203s214.22548828-96.71923828 214.22548828-215.59570313c0-117.71103516-94.23896484-213.68408203-210.76171875-215.55791015z m0 1e-8"  horiz-adv-x="1024" />

    
    <glyph glyph-name="exitOut" unicode="&#921617;" d="M668.15548795-37.875H169.9725611c-43.54573151 0-79.02438986 35.47865835-79.02439069 79.02438986V726.0274389C90.94817041 769.57317041 126.42682959 805.05182959 169.9725611 805.05182959h498.18292685c43.54573151 0 79.02438986-35.47865835 79.02438986-79.02439069v-78.03658521c0-14.57012219-11.77134165-26.34146302-26.34146302-26.34146383s-26.34146302 11.77134165-26.34146384 26.34146383V726.0274389c0 14.48780466-11.85365835 26.34146302-26.341463 26.34146383H169.9725611c-14.48780466 0-26.34146302-11.85365835-26.34146383-26.34146382v-684.87804905c0-14.48780466 11.85365835-26.34146302 26.34146382-26.34146301h498.18292686c14.48780466 0 26.34146302 11.85365835 26.341463 26.34146301v80.01219535c0 14.57012219 11.77134165 26.34146302 26.34146384 26.34146384s26.34146302-11.77134165 26.34146302-26.34146384V41.14938986000004c0-43.54573151-35.39634165-79.02438986-79.02438986-79.02438986zM904.24085369 357.90548794999995H405.64634165c-14.57012219 0-26.34146302 11.77134165-26.34146384 26.341463s11.77134165 26.34146302 26.34146384 26.34146384H904.24085369c14.57012219 0 26.34146302-11.77134165 26.34146302-26.34146384s-11.77134165-26.34146302-26.34146301-26.341463zM827.02743891 252.7042685c-5.59756108 0-11.2774389 1.81097589-16.05182877 5.51524355-11.52438986 8.89024356-13.66463425 25.43597589-4.77439069 36.96036576l67.5 87.50304905-67.8292685 91.61890273c-8.6432926 11.68902412-6.17378055 28.1524389 5.51524439 36.87804822 11.68902412 8.6432926 28.1524389 6.17378055 36.87804821-5.51524356l79.68292686-107.67073151c6.99695094-9.46646302 6.91463425-22.47256109-0.32926767-31.77439069l-79.68292686-103.22560931c-5.18597588-6.75-13.00609726-10.28963425-20.90853697-10.28963425z"  horiz-adv-x="1024" />

    
    <glyph glyph-name="icon_qingkong" unicode="&#59439;" d="M597.43952592 755.53248395v-59.54876048c0-57.08913778 46.47392395-103.56306173 103.56306173-103.56306174h185.11897285v-579.95314568H137.8784395V592.42066173h183.82443458c57.08913778 0 103.56306173 46.47392395 103.56306173 103.56306174v59.54876048h172.17359011m0 82.85044938H425.26593581c-45.69720098 0-82.85044939-37.15324839-82.85044939-82.85044938v-59.54876048c0-11.3919368-9.32067555-20.71261235-20.71261234-20.71261236H96.45321482c-22.91332741 0-41.42522469-18.51189728-41.42522469-41.42522469v-662.80359506c0-22.91332741 18.51189728-41.42522469 41.42522469-41.42522469h831.09357036c22.91332741 0 41.42522469 18.51189728 41.42522469 41.42522469V633.8458864199999c0 22.91332741-18.51189728 41.42522469-41.42522469 41.42522469H701.00258765c-11.3919368 0-20.71261235 9.32067555-20.71261234 20.71261236v59.54876048c0 45.69720098-37.15324839 82.85044939-82.85044939 82.85044938zM968.97200987 505.68659753H55.02799013v-82.85044938h913.94401974v82.85044938zM303.57933827 178.16841481999995h-41.42522469v-207.12612346c0-22.91332741 18.51189728-41.42522469 41.42522469-41.42522469s41.42522469 18.51189728 41.4252247 41.42522469V136.74319013000002c0 22.91332741-18.51189728 41.42522469-41.4252247 41.42522469zM720.42066173 178.16841481999995h-41.4252247v-207.12612346c0-22.91332741 18.51189728-41.42522469 41.4252247-41.42522469s41.42522469 18.51189728 41.42522469 41.42522469V136.74319013000002c0 22.91332741-18.51189728 41.42522469-41.42522469 41.42522469zM512 178.16841481999995h-41.42522469v-207.12612346c0-22.91332741 18.51189728-41.42522469 41.42522469-41.42522469s41.42522469 18.51189728 41.42522469 41.42522469V136.74319013000002c0 22.91332741-18.51189728 41.42522469-41.42522469 41.42522469z"  horiz-adv-x="1024" />

    
    <glyph glyph-name="kuosandian" unicode="&#59040;" d="M512-93.866667C249.173333-93.866667 34.133333 121.173333 34.133333 384S249.173333 861.866667 512 861.866667s477.866667-215.04 477.866667-477.866667-215.04-477.866667-477.866667-477.866667z m0 819.2c-187.733333 0-341.333333-153.6-341.333333-341.333333s153.6-341.333333 341.333333-341.333333 341.333333 153.6 341.333333 341.333333-153.6 341.333333-341.333333 341.333333zM512-128C230.4-128 0 102.4 0 384S230.4 896 512 896s512-230.4 512-512-230.4-512-512-512z m0 989.866667C249.173333 861.866667 34.133333 646.826667 34.133333 384s215.04-477.866667 477.866667-477.866667 477.866667 215.04 477.866667 477.866667S774.826667 861.866667 512 861.866667z"  horiz-adv-x="1024" />

    
    <glyph glyph-name="nenghaoguanli" unicode="&#59041;" d="M512 643.2c-56 0-100.8 44.8-100.8 100.8s44.8 100.8 100.8 100.8 100.8-44.8 100.8-100.8-44.8-100.8-100.8-100.8z m0 137.6c-20.8 0-36.8-16-36.8-36.8s16-36.8 36.8-36.8c20.8 0 36.8 16 36.8 36.8s-16 36.8-36.8 36.8zM788.8-11.2c-56 0-100.8 44.8-100.8 100.8s44.8 100.8 100.8 100.8 100.8-44.8 100.8-100.8-44.8-100.8-100.8-100.8z m0 137.6c-20.8 0-36.8-16-36.8-36.8s16-36.8 36.8-36.8c20.8 0 36.8 16 36.8 36.8s-16 36.8-36.8 36.8zM235.2-11.2c-56 0-100.8 44.8-100.8 100.8s44.8 100.8 100.8 100.8 100.8-44.8 100.8-100.8-44.8-100.8-100.8-100.8z m0 137.6c-20.8 0-36.8-16-36.8-36.8s16-36.8 36.8-36.8 36.8 16 36.8 36.8-16 36.8-36.8 36.8zM851.2 131.2l-52.8 36.8c1.6 3.2 3.2 4.8 4.8 8 36.8 56 57.6 121.6 57.6 190.4 0 134.4-80 259.2-203.2 315.2l27.2 57.6c145.6-67.2 240-212.8 240-372.8 0-80-24-158.4-67.2-225.6-1.6-3.2-4.8-6.4-6.4-9.6zM123.2 225.6c-16 44.8-25.6 92.8-25.6 140.8 0 198.4 142.4 368 339.2 404.8l11.2-62.4C281.6 678.4 161.6 534.4 161.6 368c0-40 6.4-80 20.8-118.4l-59.2-24zM512-44.8c-84.8 0-166.4 25.6-235.2 73.6l36.8 52.8c59.2-40 128-62.4 200-62.4 41.6 0 81.6 6.4 120 20.8l22.4-60.8c-48-16-96-24-144-24zM505.6 403.2h148.8L492.8 155.2l27.2 169.6h-142.4l148.8 243.2z"  horiz-adv-x="1024" />

    
    <glyph glyph-name="cheliangzonglan" unicode="&#59042;" d="M512 424c-147.2 0-284.8 19.2-409.6 57.6l-30.4 9.6 19.2 60.8 30.4-9.6c118.4-36.8 251.2-54.4 390.4-54.4 140.8 0 272 17.6 390.4 54.4l30.4 9.6 19.2-60.8-30.4-9.6c-124.8-38.4-262.4-57.6-409.6-57.6zM816 128H208c-89.6 0-144 54.4-144 144 0 67.2 24 161.6 76.8 209.6 25.6 22.4 54.4 33.6 86.4 30.4 17.6-1.6 30.4-17.6 28.8-35.2-1.6-17.6-17.6-30.4-35.2-28.8-14.4 1.6-25.6-3.2-38.4-14.4C148.8 403.2 128 326.4 128 272c0-54.4 25.6-80 80-80h608c54.4 0 80 25.6 80 80s-20.8 131.2-54.4 161.6c-11.2 11.2-24 16-38.4 14.4-17.6-1.6-33.6 11.2-35.2 28.8-1.6 17.6 11.2 33.6 28.8 35.2 32 3.2 62.4-8 86.4-30.4 52.8-48 76.8-142.4 76.8-209.6 0-89.6-54.4-144-144-144zM192 304h128v-64h-128zM384 304h256v-64H384zM880 72h-96c-17.6 0-32 14.4-32 32V160c0 17.6 14.4 32 32 32s32-14.4 32-32v-24h32V160c0 17.6 14.4 32 32 32s32-14.4 32-32v-56c0-17.6-14.4-32-32-32zM240 72H144c-17.6 0-32 14.4-32 32V160c0 17.6 14.4 32 32 32s32-14.4 32-32v-24h32V160c0 17.6 14.4 32 32 32s32-14.4 32-32v-56c0-17.6-14.4-32-32-32zM832 464c-12.8 0-24 8-30.4 20.8-16 38.4-44.8 83.2-86.4 129.6-14.4 16-36.8 25.6-59.2 25.6H368c-24 0-44.8-9.6-60.8-27.2-38.4-44.8-60.8-86.4-68.8-121.6-3.2-17.6-20.8-28.8-38.4-25.6-17.6 3.2-28.8 20.8-25.6 38.4 9.6 48 36.8 99.2 83.2 152 27.2 32 67.2 49.6 108.8 49.6h288c40 0 80-17.6 107.2-48 46.4-52.8 80-102.4 99.2-148.8 6.4-16-1.6-35.2-17.6-41.6-3.2-3.2-8-3.2-11.2-3.2zM704 304h128v-64h-128z"  horiz-adv-x="1024" />

    
    <glyph glyph-name="wuyeshuju" unicode="&#59043;" d="M512-32C283.2-32 96 155.2 96 384S283.2 800 512 800s416-187.2 416-416-187.2-416-416-416z m0 768c-193.6 0-352-158.4-352-352s158.4-352 352-352 352 158.4 352 352-158.4 352-352 352zM912 352H512l-22.4 54.4 280 280 44.8-44.8L588.8 416H912z"  horiz-adv-x="1024" />

    
    <glyph glyph-name="yuanqu" unicode="&#59044;" d="M112 64h800v-64H112zM608 0h-64V720H208v-720H144V752l32 32h400l32-32zM480 0h-64V160h-80v-160h-64V192l32 32h144l32-32zM880 32h-64V390.4l-252.8 108.8 25.6 57.6 336-144-25.6-57.6-19.2 8zM544 336h192v-64H544zM544 208h192v-64H544zM272 640h64v-128h-64zM272 448h64v-128h-64zM416 640h64v-128h-64zM416 448h64v-128h-64z"  horiz-adv-x="1024" />

    
    <glyph glyph-name="renyuanguanli" unicode="&#59045;" d="M761.6 16H177.6C132.8 16 96 52.8 96 97.6c0 41.6 24 80 62.4 99.2 104 49.6 136 65.6 145.6 72 3.2 1.6 8 4.8 12.8 6.4 4.8 1.6 12.8 6.4 19.2 9.6 0 0 0 1.6-1.6 1.6-14.4 28.8-33.6 54.4-56 80l-6.4 6.4v8c-20.8 96-24 182.4-9.6 257.6l1.6 6.4C304 742.4 414.4 768 468.8 768c36.8 0 102.4-12.8 150.4-52.8h6.4c44.8 0 136-22.4 168-105.6l1.6-4.8c9.6-46.4 6.4-113.6-6.4-208l-1.6-8-4.8-6.4c-27.2-38.4-38.4-54.4-43.2-60.8l19.2-11.2 116.8-59.2c32-16 52.8-49.6 52.8-84.8 0-38.4-32-70.4-70.4-70.4h-16c-1.6-44.8-36.8-80-80-80z m-384 219.2c-8-6.4-19.2-12.8-32-17.6-3.2-1.6-8-3.2-9.6-4.8-16-9.6-64-33.6-150.4-73.6-16-8-25.6-24-25.6-41.6 0-9.6 8-17.6 17.6-17.6h584c8 0 16 6.4 16 16 0 17.6-9.6 33.6-25.6 40l-152 75.2-54.4 32-3.2 12.8c-8 22.4-6.4 41.6 1.6 59.2 3.2 8 14.4 24 59.2 84.8 14.4 100.8 17.6 174.4 8 222.4-28.8 67.2-115.2 81.6-144 81.6-28.8 0-115.2-14.4-144-81.6-12.8-62.4-9.6-137.6 8-219.2 24-27.2 44.8-56 60.8-88 11.2-22.4 22.4-44.8 9.6-64-3.2-6.4-11.2-14.4-24-16z m443.2-76.8h35.2c3.2 0 6.4 3.2 6.4 6.4 0 11.2-6.4 22.4-17.6 27.2l-120 60.8-44.8 27.2-3.2 11.2c-6.4 19.2-6.4 36.8 1.6 52.8 3.2 6.4 11.2 19.2 46.4 68.8 11.2 80 12.8 139.2 6.4 176-11.2 27.2-36.8 43.2-60.8 52.8l1.6-4.8c11.2-56 8-139.2-8-254.4l-1.6-8-3.2-6.4c-48-65.6-57.6-80-57.6-81.6l30.4-17.6 148.8-73.6c16-9.6 30.4-22.4 40-36.8z"  horiz-adv-x="1024" />

    
    <glyph glyph-name="shouye" unicode="&#59046;" d="M465.6-32H252.8l-32 32V299.2H96l-22.4 54.4L510.4 812.8l46.4-43.2-385.6-406.4h81.6l32-32V32h180.8zM401.6 241.6h64V-32h-64zM558.4 241.6h64V-32h-64zM771.2-32H558.4v64h180.8V331.2l32 32h81.6L467.2 769.6l46.4 43.2 436.8-459.2-22.4-54.4h-124.8V0zM433.6 241.6h156.8v-64h-156.8z"  horiz-adv-x="1024" />

    
    <glyph glyph-name="xiaofangliandong" unicode="&#59047;" d="M544 697.6L534.4 752h-44.8l-9.6-54.4-64 12.8 16 80L464 816h96l32-25.6 16-80zM256 576h512v-64H256zM688 512c-17.6 0-32 14.4-32 32 0 70.4-57.6 128-128 128h-32c-70.4 0-128-57.6-128-128 0-17.6-14.4-32-32-32s-32 14.4-32 32c0 105.6 86.4 192 192 192h32c105.6 0 192-86.4 192-192 0-17.6-14.4-32-32-32zM688 0c-17.6 0-32 14.4-32 32V544c0 17.6 14.4 32 32 32s32-14.4 32-32v-512c0-17.6-14.4-32-32-32zM336 0c-17.6 0-32 14.4-32 32V544c0 17.6 14.4 32 32 32s32-14.4 32-32v-512c0-17.6-14.4-32-32-32zM224 48h576v-64H224zM336 272h-80l-32 32v112l32 32h80v-64h-48v-48h48zM768 272h-80v64h48v48h-48v64h80l32-32v-112zM416 432h64v-320h-64zM544 432h64v-320h-64z"  horiz-adv-x="1024" />

    
    <glyph glyph-name="quanguoditu" unicode="&#59048;" d="M512-122.88c-279.04 0-506.88 227.84-506.88 506.88S232.96 890.88 512 890.88s506.88-227.84 506.88-506.88-227.84-506.88-506.88-506.88z m0 963.584c-251.904 0-456.704-204.8-456.704-456.704s204.8-456.704 456.704-456.704 456.704 204.8 456.704 456.704-204.8 456.704-456.704 456.704z"  horiz-adv-x="1024" />

    
    <glyph glyph-name="yunxishouye" unicode="&#59049;" d="M880 128h-144v64h112V608h-80l-28.8 17.6-22.4 46.4H307.2l-22.4-46.4L256 608h-80v-416h112v-64H144l-32 32V640l32 32h92.8l22.4 46.4L288 736h448l28.8-17.6 22.4-46.4H880l32-32v-480zM336 736h64v-608h-64zM624 736h64v-608h-64zM512 16H256l-32 32V480l32 32h176v-64h-144v-368h224zM768 16H512v64h224V448h-144v64h176l32-32v-432zM448 624h128v-64h-128zM480 608h64v-592h-64z"  horiz-adv-x="1024" />

    
    <glyph glyph-name="ditu" unicode="&#59050;" d="M1238.273128 738.114537c0 2.255507-2.255507 6.76652-2.255507 9.022027 0 2.255507-2.255507 2.255507-2.255506 4.511013 0 0 0 2.255507 2.255506 6.76652 2.255507 6.76652 2.255507 13.53304 0 18.044053l2.255507 2.255506c6.76652 18.044053 0 24.810573-4.511013 27.06608-2.255507 2.255507-6.76652 2.255507-9.022027 2.255506-9.022026 0-13.53304-6.76652-15.788546-9.022026-2.255507-2.255507-4.511013-2.255507-6.76652-4.511013l-6.76652 2.255506c-11.277533-6.76652-20.299559-15.788546-24.810572-29.321586-2.255507 0-4.511013-2.255507-6.76652-2.255506 0 4.511013-2.255507 9.022026-6.76652 11.277533 0 4.511013-2.255507 13.53304-9.022027 15.788546-2.255507 2.255507-4.511013 2.255507-9.022026 2.255507-2.255507 0-6.76652 0-9.022026-2.255507-9.022026 4.511013-18.044053 9.022026-27.06608 6.76652h-11.277533c-2.255507 2.255507-4.511013 6.76652-6.76652 9.022026-2.255507 2.255507-2.255507 2.255507-6.766519 13.53304-4.511013 9.022026-9.022026 15.788546-15.788547 18.044053 0 2.255507-2.255507 2.255507-2.255506 4.511013-2.255507 9.022026-9.022026 15.788546-13.53304 20.299559 0 4.511013-2.255507 9.022026-6.76652 11.277534-9.022026 9.022026-22.555066 9.022026-29.321586 9.022026h-9.022026c-4.511013 9.022026-9.022026 11.277533-15.788546 11.277533-6.76652 0-15.788546-2.255507-20.29956-9.022026-4.511013 0-6.76652-2.255507-11.277533-2.255507-18.044053-2.255507-24.810573-6.76652-36.088106-29.321586V850.889868c0-4.511013 0-18.044053 9.022027-22.555066-4.511013-6.76652-6.76652-13.53304-9.022027-20.29956v-4.511013c-2.255507-6.76652-4.511013-15.788546-2.255506-24.810573l-6.76652-4.511013h-9.022026c-4.511013 4.511013-11.277533 4.511013-18.044053 0l-4.511014-2.255506-2.255506-2.255507c-6.76652-11.277533-13.53304-31.577093-15.788546-47.365639v-2.255506c-2.255507-2.255507-4.511013-6.76652-4.511014-11.277533v-4.511014l2.255507-4.511013c4.511013-11.277533 11.277533-18.044053 20.299559-20.299559 6.76652-2.255507 13.53304 0 18.044053 4.511013 0 0 2.255507 2.255507 4.511014 2.255506 4.511013-2.255507 9.022026-2.255507 13.533039-2.255506-4.511013-2.255507-9.022026-4.511013-11.277533-9.022027-4.511013 0-9.022026-2.255507-11.277533-4.511013-6.76652-4.511013-6.76652-11.277533-9.022026-18.044053 0-2.255507-2.255507-4.511013-4.511014-6.766519h-4.511013c-11.277533 0-20.299559-2.255507-24.810572-15.788547 0-2.255507-2.255507-2.255507-2.255507-4.511013-4.511013 0-6.76652 2.255507-11.277533 2.255507-2.255507 0-4.511013 2.255507-4.511013 2.255506-4.511013 2.255507-9.022026 2.255507-13.53304 4.511013-11.277533 0-18.044053-6.76652-24.810573-20.299559-4.511013-13.53304-2.255507-22.555066 0-29.321586-9.022026-6.76652-13.53304-15.788546-15.788546-20.299559-6.76652 0-11.277533-2.255507-15.788546-6.76652h-18.044053c-29.321586 0-33.832599-2.255507-60.898678-18.044053 0 0-2.255507 2.255507-4.511014 9.022026l-18.044052-6.766519c-2.255507-2.255507-4.511013-2.255507-9.022027-2.255507-2.255507 0-4.511013 2.255507-4.511013 2.255507-4.511013 4.511013-11.277533 6.76652-18.044053 6.766519-11.277533 13.53304-29.321586 15.788546-40.599119 15.788547h-33.832599c-6.76652 0-15.788546 2.255507-22.555066 4.511013-4.511013 2.255507-9.022026 2.255507-13.53304 2.255506h-4.511013c-2.255507 4.511013-4.511013 9.022026-6.76652 11.277533l-6.76652 13.53304c0 4.511013 0 9.022026-2.255506 13.53304-4.511013 9.022026-13.53304 9.022026-18.044053 9.022026l-6.76652 6.76652c-2.255507 2.255507-4.511013 6.76652-9.022026 9.022026-9.022026 9.022026-20.299559 13.53304-33.832599 13.53304H415.013216c13.53304 20.299559 11.277533 29.321586 6.76652 40.599119 0 2.255507-2.255507 4.511013-2.255507 9.022027v4.511013c-2.255507 2.255507-2.255507 4.511013-2.255507 6.76652 0 4.511013 0 18.044053-15.788546 22.555066-4.511013 4.511013-9.022026 6.76652-15.788546 6.766519H383.436123l-2.255506 2.255507v4.511013c-2.255507 22.555066-15.788546 24.810573-22.555066 24.810573-2.255507 2.255507-4.511013 2.255507-9.022027 2.255507h-4.511013c-6.76652 0-13.53304-4.511013-15.788546-9.022027-2.255507-2.255507-4.511013-6.76652-4.511013-9.022026-9.022026 0-15.788546-2.255507-22.555067-9.022027-4.511013-6.76652-9.022026-15.788546-6.766519-24.810572-2.255507 0-4.511013 2.255507-9.022027 4.511013l-2.255506 2.255506c-2.255507 0-4.511013 2.255507-4.511014 2.255507-2.255507 2.255507-6.76652 4.511013-13.533039 4.511013-11.277533 0-18.044053-9.022026-22.555066-13.533039l-4.511014-4.511014c-6.76652-15.788546-9.022026-20.299559-11.277533-24.810572 0-2.255507-2.255507-2.255507-2.255506-4.511014-9.022026 2.255507-18.044053 2.255507-24.810573 0l-4.511013-2.255506h-4.511013c-6.76652 0-11.277533-2.255507-15.788547-9.022027l-4.511013-2.255506c-2.255507-11.277533 2.255507-18.044053 2.255507-20.29956v-4.511013c-2.255507-6.76652-2.255507-13.53304 0-20.299559-2.255507-4.511013-4.511013-6.76652-6.76652-9.022027l-4.511013-2.255506c-4.511013-4.511013-6.76652-9.022026-9.022027-18.044053-22.555066-2.255507-38.343612-2.255507-51.876652-9.022027-4.511013 2.255507-9.022026 2.255507-13.533039 0-4.511013-2.255507-9.022026-4.511013-11.277533-9.022026-2.255507 2.255507-4.511013 2.255507-6.76652 4.511013H67.665198c-4.511013 2.255507-9.022026 2.255507-15.788546 2.255507-4.511013 0-9.022026-2.255507-11.277533-6.76652h-4.511013c-13.53304-2.255507-20.299559-9.022026-22.555066-13.53304-2.255507-2.255507-2.255507-4.511013-2.255507-6.76652-4.511013-2.255507-6.76652-6.76652-6.76652-11.277533v-6.766519c0-2.255507-2.255507-4.511013-2.255506-6.76652-2.255507-9.022026 0-18.044053 6.766519-24.810573 2.255507-4.511013 6.76652-6.76652 11.277533-6.76652v-9.022026c-6.76652-2.255507-11.277533-9.022026-13.533039-18.044053 0-11.277533 4.511013-20.299559 15.788546-22.555066l6.76652-6.76652c-2.255507-4.511013-4.511013-13.53304 0-22.555066 4.511013-6.76652 11.277533-11.277533 18.044053-13.53304 2.255507-6.76652 9.022026-11.277533 15.788546-13.533039-2.255507-11.277533 2.255507-20.299559 6.76652-24.810573-2.255507-2.255507-2.255507-4.511013-2.255507-6.76652-2.255507-6.76652 0-11.277533 0-15.788546 0-2.255507 0-4.511013 2.255507-6.76652-2.255507 0-6.76652-2.255507-9.022027-4.511013-4.511013-4.511013-9.022026-9.022026-9.022026-15.788546 0-4.511013 0-9.022026 2.255507-11.277533v-13.53304c-4.511013-22.555066 11.277533-33.832599 18.044052-38.343612l2.255507-2.255507c6.76652-4.511013 13.53304-11.277533 20.29956-22.555066 6.76652-9.022026 13.53304-11.277533 18.044052-11.277533 4.511013 0 9.022026 0 11.277533 2.255506 6.76652-6.76652 9.022026-11.277533 11.277533-13.533039 6.76652-4.511013 9.022026-6.76652 9.022027-9.022027 2.255507-9.022026 6.76652-18.044053 18.044053-20.299559 2.255507-4.511013 4.511013-11.277533 9.022026-13.53304 4.511013-2.255507 9.022026-6.76652 13.53304-6.76652 2.255507-6.76652 6.76652-11.277533 15.788546-13.533039 2.255507-6.76652 6.76652-13.53304 15.788546-15.788546 6.76652 0 9.022026-2.255507 11.277533-2.255507 2.255507 0 4.511013 0 6.76652 2.255507 6.76652-4.511013 13.53304-6.76652 24.810573-6.76652h11.277533c0-4.511013 2.255507-9.022026 4.511013-11.277533 2.255507-4.511013 9.022026-9.022026 18.044053-6.76652 9.022026 2.255507 18.044053 6.76652 20.29956 20.299559l2.255506 2.255507c6.76652-6.76652 13.53304-9.022026 22.555066-11.277533 0-4.511013 2.255507-9.022026 6.76652-13.53304v-4.511013c0-9.022026 2.255507-13.53304 6.76652-15.788546 6.76652-6.76652 15.788546-6.76652 20.299559-6.76652h9.022027c15.788546 2.255507 29.321586 2.255507 40.599119 13.53304l2.255506 2.255506c15.788546 2.255507 20.299559 9.022026 24.810573 13.53304l6.76652 2.255506c2.255507 0 6.76652 0 15.788546-6.766519 6.76652-4.511013 11.277533-6.76652 15.788546-6.76652 4.511013 0 9.022026 2.255507 13.53304 4.511013 2.255507-4.511013 4.511013-6.76652 9.022026-9.022026v-18.044053c-2.255507-2.255507-2.255507-6.76652-4.511013-11.277533-4.511013-2.255507-11.277533-6.76652-13.533039-11.277533-6.76652-4.511013-9.022026-9.022026-11.277534-15.788547-4.511013-4.511013-6.76652-11.277533-6.766519-18.044052 0-2.255507 0-4.511013 2.255506-6.76652-4.511013-6.76652-4.511013-15.788546 2.255507-22.555066 4.511013-4.511013 9.022026-6.76652 15.788546-6.76652 4.511013 0 9.022026 2.255507 13.53304 4.511013 2.255507-4.511013 2.255507-9.022026 4.511013-13.53304 2.255507-4.511013 4.511013-9.022026 9.022026-11.277533-4.511013-6.76652-4.511013-13.53304-2.255506-22.555066 2.255507-4.511013 6.76652-11.277533 20.299559-13.533039 4.511013-9.022026 13.53304-15.788546 22.555066-15.788547h6.76652c2.255507-6.76652 9.022026-11.277533 15.788546-11.277533 2.255507-2.255507 6.76652-2.255507 11.277533-2.255506 2.255507 0 6.76652 0 9.022027 2.255506 6.76652 4.511013 11.277533 13.53304 9.022026 20.29956V-73.867841v9.022026c4.511013 0 9.022026 2.255507 11.277533 4.511013 2.255507 0 4.511013-2.255507 9.022027-2.255506 4.511013-2.255507 9.022026-2.255507 13.533039-2.255507 2.255507-2.255507 4.511013-2.255507 9.022027-2.255507s6.76652 2.255507 11.277533 4.511014l4.511013 2.255506h9.022027l2.255506 4.511013 13.53304-2.255506v9.022026c2.255507-2.255507 6.76652-2.255507 9.022026-2.255506 0-6.76652 2.255507-13.53304 6.76652-18.044053 6.76652-9.022026 18.044053-15.788546 33.832599-18.044053 9.022026-4.511013 20.299559-4.511013 29.321586 0l9.022027-11.277533 4.511013 2.255507c0-2.255507 2.255507-4.511013 2.255506-6.76652 0-4.511013 0-9.022026 2.255507-13.53304 4.511013-6.76652 11.277533-11.277533 18.044053-11.277533h6.76652c18.044053 4.511013 24.810573 18.044053 22.555066 27.066079 0 2.255507 0 4.511013-2.255507 6.76652 4.511013 0 6.76652 2.255507 11.277533 2.255507 6.76652 0 13.53304 2.255507 20.29956 6.76652 4.511013 0 11.277533 2.255507 15.788546 4.511013 4.511013 0 9.022026 2.255507 11.277533 4.511013 4.511013 4.511013 6.76652 9.022026 6.76652 11.277533 4.511013 2.255507 6.76652 2.255507 9.022026 2.255507 2.255507 0 4.511013 0 6.76652 2.255506h4.511013c6.76652 0 15.788546 4.511013 20.29956 9.022027 6.76652-2.255507 11.277533 0 15.788546 4.511013 13.53304 2.255507 24.810573 9.022026 31.577092 20.299559l4.511014 4.511014 2.255506 2.255506c13.53304 4.511013 15.788546 9.022026 22.555066 22.555066v4.511013l2.255507 2.255507s2.255507 2.255507 2.255507 4.511013c4.511013 2.255507 9.022026 6.76652 9.022026 11.277533 4.511013 2.255507 6.76652 4.511013 6.76652 9.022027 2.255507 0 2.255507 2.255507 4.511013 2.255506 4.511013 2.255507 6.76652 4.511013 9.022027 6.76652 2.255507 4.511013 2.255507 11.277533 2.255506 15.788546 2.255507 4.511013 2.255507 9.022026 0 13.53304 2.255507 2.255507 2.255507 4.511013 2.255507 6.76652 2.255507 2.255507 4.511013 6.76652 4.511013 11.277533 4.511013 2.255507 9.022026 9.022026 11.277533 15.788546v13.53304l2.255507 2.255506c9.022026 2.255507 15.788546 13.53304 18.044052 20.29956v4.511013c2.255507 4.511013 2.255507 9.022026 2.255507 15.788546 4.511013 6.76652 4.511013 15.788546 2.255507 24.810573 2.255507 9.022026-2.255507 18.044053-11.277533 22.555066 2.255507 2.255507 4.511013 4.511013 4.511013 6.76652 2.255507 4.511013 2.255507 11.277533 0 15.788546l4.511013 13.53304h-6.76652c0 6.76652-4.511013 13.53304-9.022026 15.788546l-4.511013 4.511013c-2.255507 0-2.255507 2.255507-4.511014 2.255507-2.255507 4.511013-6.76652 6.76652-9.022026 9.022026-2.255507 6.76652-6.76652 11.277533-11.277533 15.788547-4.511013 13.53304-6.76652 22.555066-13.53304 29.321586-4.511013 4.511013-11.277533 9.022026-18.044053 11.277533 2.255507 2.255507 2.255507 4.511013 4.511014 6.766519l6.766519 6.76652c4.511013 2.255507 9.022026 6.76652 11.277533 11.277533 2.255507 2.255507 4.511013 6.76652 4.511014 11.277533 4.511013 2.255507 6.76652 4.511013 11.277533 6.76652h11.277533l4.511013 4.511013c4.511013 4.511013 6.76652 11.277533 6.76652 15.788547 2.255507 6.76652 2.255507 13.53304 0 20.299559-2.255507 4.511013-6.76652 9.022026-18.044053 9.022027h-13.53304c-2.255507 0-4.511013 0-6.76652 2.255506 0 0 0 2.255507 2.255507 2.255507 6.76652 4.511013 13.53304 11.277533 15.788546 18.044053 6.76652 6.76652 13.53304 11.277533 20.29956 15.788546 4.511013 0 9.022026 2.255507 11.277533 4.511013l4.511013-2.255507 4.511013 13.53304 6.76652 13.53304c0 2.255507 2.255507 4.511013 4.511013 4.511013l2.255507 2.255507c9.022026 6.76652 13.53304 15.788546 18.044053 24.810572 2.255507 0 6.76652-2.255507 11.277533-2.255506 6.76652 0 15.788546 2.255507 20.299559 9.022026 4.511013 4.511013 9.022026 11.277533 6.76652 18.044053 4.511013 2.255507 6.76652 6.76652 9.022027 11.277533l2.255506 2.255507 6.76652 6.766519c4.511013-2.255507 9.022026 0 13.53304 2.255507 4.511013 2.255507 6.76652 6.76652 6.766519 11.277533 2.255507 2.255507 2.255507 4.511013 4.511014 6.76652 6.76652 15.788546 2.255507 40.599119-6.76652 60.898678 2.255507 2.255507 2.255507 2.255507 4.511013 2.255507 18.044053 0 24.810573 9.022026 27.066079 22.555066v9.022026c0 24.810573 2.255507 40.599119-2.255506 51.876652z"  horiz-adv-x="1252" />

    
    <glyph glyph-name="dichanmingcheng" unicode="&#59051;" d="M445.506494 208.900433l-62.060607-35.463204h-8.8658v8.865801l8.8658 70.926407-53.194805 44.329005v8.8658h8.865801l70.926407 8.865801 35.463204 62.060606s8.865801 8.865801 8.8658 0L489.835498 315.290043h62.060606c8.865801 0 8.865801-8.865801 8.865801-8.865801v-8.8658l-53.194805-44.329005 8.8658-70.926407c0-8.865801 0-8.865801-8.8658-8.865801h-8.865801l-53.194805 35.463204zM888.796537-83.670996h-797.922078c-26.597403 0-44.329004 17.731602-44.329004 44.329005V403.948052c0 8.865801 8.865801 26.597403 8.8658 35.463203l354.632035 354.632035c17.731602 17.731602 44.329004 17.731602 62.060606 0l310.30303-310.30303c17.731602-17.731602 17.731602-44.329004 0-62.060606s-44.329004-17.731602-62.060606-8.865801L445.506494 696.519481 135.203463 386.21645v-381.229437h753.593074c26.597403 0 44.329004-17.731602 44.329004-44.329004s-17.731602-44.329004-44.329004-44.329005zM888.796537 93.645022c-26.597403 0-44.329004 17.731602-44.329005 44.329004V474.874459L498.701299 811.774892C489.835498 829.506494 489.835498 864.969697 498.701299 882.701299s44.329004 17.731602 62.060606 0L933.125541 510.337662V137.974026c0-26.597403-17.731602-44.329004-44.329004-44.329004z"  horiz-adv-x="1024" />

    
    <glyph glyph-name="wuyeleixing" unicode="&#59052;" d="M409.6-49.230769c-31.507692 0-63.015385 7.876923-86.646154 31.507692L110.276923 202.830769C63.015385 250.092308 63.015385 320.984615 110.276923 368.246154l425.353846 425.353846c15.753846 23.630769 47.261538 39.384615 78.769231 39.384615h259.938462c47.261538 0 78.769231-31.507692 78.76923-78.76923v-259.938462c0-31.507692-15.753846-63.015385-31.507692-86.646154l-425.353846-425.353846c-23.630769-23.630769-55.138462-31.507692-86.646154-31.507692zM614.4 754.215385c-15.753846 0-23.630769-7.876923-31.507692-15.753847L165.415385 320.984615c-15.753846-15.753846-15.753846-47.261538 0-55.138461l220.553846-220.553846c15.753846-15.753846 39.384615-15.753846 55.138461 0l425.353846 425.353846c7.876923 7.876923 7.876923 15.753846 7.876924 31.507692V754.215385H614.4zM693.169231 565.169231m-78.769231 0a78.769231 78.769231 0 1 1 157.538462 0 78.769231 78.769231 0 1 1-157.538462 0Z"  horiz-adv-x="1024" />

    
    <glyph glyph-name="wuyedizhi" unicode="&#59053;" d="M512-88.615385C322.953846-88.615385 157.538462 313.107692 157.538462 502.153846 157.538462 699.076923 315.076923 856.615385 512 856.615385s354.461538-157.538462 354.461538-354.461539c0-189.046154-165.415385-590.769231-354.461538-590.769231z m0 866.461539C362.338462 777.846154 236.307692 651.815385 236.307692 502.153846c0-165.415385 157.538462-512 275.692308-512S787.692308 336.738462 787.692308 502.153846c0 149.661538-126.030769 275.692308-275.692308 275.692308zM512 502.153846m-118.153846 0a118.153846 118.153846 0 1 1 236.307692 0 118.153846 118.153846 0 1 1-236.307692 0Z"  horiz-adv-x="1024" />

    
    <glyph glyph-name="yuanqu1" unicode="&#59055;" d="M1031.314286-40.228571V391.314286H687.542857v73.142857h416.914286v-504.685714h87.771428v-73.142858H14.628571v73.142858H146.285714V844.8h475.428572v-885.028571h95.085714V171.885714h219.428571v-212.114285h95.085715z m-175.542857 0v138.971428h-73.142858v-138.971428h73.142858z m-636.342858 0h329.142858V771.657143H219.428571v-811.885714z m65.828572 431.542857v73.142857h190.171428v-73.142857H285.257143z m0 153.6v73.142857h190.171428v-73.142857H285.257143z m0-299.885715v73.142858h190.171428v-73.142858H285.257143z"  horiz-adv-x="1243" />

    
    <glyph glyph-name="zhixiangbiaoti" unicode="&#59054;" d="M434.424242 896h2482.424243c238.933333 0 434.424242-195.490909 434.424242-434.424242s-195.490909-434.424242-434.424242-434.424243H2103.854545c-155.151515 0-307.2-55.854545-428.218181-155.151515-121.018182 99.29697-273.066667 155.151515-428.218182 155.151515H434.424242C195.490909 27.151515 0 222.642424 0 461.575758S195.490909 896 434.424242 896z"  horiz-adv-x="3351" />

    
    <glyph glyph-name="dapingkongzhi" unicode="&#59056;" d="M960 112H64V752h896v-640zM128 176h768V688H128v-512zM160 64h704v-64H160zM374.4 324.8h-40l4.8 17.6-68.8-19.2v25.6l17.6 4.8v121.6h-16v24h16v49.6h46.4v-49.6h14.4v-24h-14.4V368l12.8 3.2 17.6 67.2h40l-30.4-113.6z m64-1.6l-11.2 19.2-4.8-17.6H384l30.4 113.6h38.4v12.8H352v25.6l70.4 46.4h-73.6v24h142.4v-27.2l-68.8-43.2H496v-152h-57.6z m11.2 105.6l-22.4-80h22.4v80zM577.6 324.8h-52.8l27.2 38.4h51.2l-25.6-38.4z m-51.2 108.8v22.4h89.6l-6.4 11.2h-75.2v80h211.2v-80h-81.6l6.4-11.2h84.8v-22.4H526.4z m139.2-64v-48h-64l-9.6 22.4h24v25.6h-76.8v54.4h201.6v-54.4h-75.2z m33.6 155.2h-116.8v-9.6h116.8v9.6z m0-27.2h-116.8v-9.6h116.8v9.6z m-6.4-92.8h-104v-12.8h104v12.8z m14.4-80l-27.2 38.4h51.2l27.2-38.4h-51.2z"  horiz-adv-x="1024" />

    


  </font>
</defs>
</svg>
